<svg xmlns="http://www.w3.org/2000/svg" style="display:none">

<!-- icons ios -->

<symbol id="icon-arrow-down-ios" viewBox="0 0 512 512">
	<path d="m256 294.1 127-127.1c9.4-9.4 24.6-9.4 33.9 0s9.3 24.6 0 34l-143.9 144c-9.1 9.1-23.7 9.3-33.1.7l-144.9-144.6c-4.7-4.7-7-10.9-7-17s2.3-12.3 7-17c9.4-9.4 24.6-9.4 33.9 0z"/>
</symbol>

<symbol id="icon-arrow-round-forward-ios" viewBox="0 0 512 512">
	<path d="m295.6 163.7c-5.1 5-5.1 13.3-.1 18.4l60.8 60.9h-231.4c-7.1 0-12.9 5.8-12.9 13s5.8 13 12.9 13h231.3l-60.8 60.9c-5 5.1-4.9 13.3.1 18.4 5.1 5 13.2 5 18.3-.1l82.4-83c1.1-1.2 2-2.5 2.7-4.1s1-3.3 1-5c0-3.4-1.3-6.6-3.7-9.1l-82.4-83c-4.9-5.2-13.1-5.3-18.2-.3z"/>
</symbol>

<symbol id="icon-arrow-forward-ios" viewBox="0 0 512 512">
	<path d="m294.1 256-127.1-127c-9.4-9.4-9.4-24.6 0-33.9s24.6-9.3 34 0l144 143.9c9.1 9.1 9.3 23.7.7 33.1l-144.6 144.9c-4.7 4.7-10.9 7-17 7s-12.3-2.3-17-7c-9.4-9.4-9.4-24.6 0-33.9z"/>
</symbol>

<symbol id="icon-arrow-dropright-ios" viewBox="0 0 512 512">
	<path d="m210.7 147.6c7.5-7.5 19.8-7.5 27.3 0l95.4 95.7c7.3 7.3 7.5 19.1.6 26.6l-94 94.3c-3.8 3.8-8.7 5.7-13.7 5.7-4.9 0-9.9-1.9-13.6-5.6-7.5-7.5-7.6-19.7 0-27.3l79.9-81.1-81.9-81.1c-7.6-7.4-7.6-19.6 0-27.2z"/>
	<path d="m48 256c0 114.9 93.1 208 208 208s208-93.1 208-208-93.1-208-208-208-208 93.1-208 208zm32 0c0-47 18.3-91.2 51.6-124.4 33.2-33.3 77.4-51.6 124.4-51.6s91.2 18.3 124.4 51.6c33.3 33.2 51.6 77.4 51.6 124.4s-18.3 91.2-51.6 124.4c-33.2 33.3-77.4 51.6-124.4 51.6s-91.2-18.3-124.4-51.6c-33.3-33.2-51.6-77.4-51.6-124.4z"/>
</symbol>

<symbol id="icon-person-ios" viewBox="0 0 512 512">
	<path d="m447.8 438.3c-7.2-31.8-48.3-47.3-62.5-52.3-15.6-5.5-37.8-6.8-52.1-10-8.2-1.8-20.1-6.3-24.1-11.1s-1.6-49.3-1.6-49.3 7.4-11.5 11.4-21.7c4-10.1 8.4-37.9 8.4-37.9s8.2 0 11.1-14.4c3.1-15.7 8-21.8 7.4-33.5-.6-11.5-6.9-11.2-6.9-11.2s6.1-16.7 6.8-51.3c.9-41.1-31.3-81.6-89.6-81.6-59.1 0-90.6 40.5-89.7 81.6.8 34.6 6.7 51.3 6.7 51.3s-6.3-.3-6.9 11.2c-.6 11.7 4.3 17.8 7.4 33.5 2.8 14.4 11.1 14.4 11.1 14.4s4.4 27.8 8.4 37.9c4 10.2 11.4 21.7 11.4 21.7s2.4 44.5-1.6 49.3-15.9 9.3-24.1 11.1c-14.3 3.2-36.5 4.5-52.1 10-14.2 5-55.3 20.5-62.5 52.3-1.1 5 2.7 9.7 7.9 9.7h367.9c5.1 0 8.9-4.7 7.8-9.7z"/>
</symbol>

<symbol id="icon-help-circle-outline-ios" viewBox="0 0 512 512">
	<path d="m256 76c48.1 0 93.3 18.7 127.3 52.7s52.7 79.2 52.7 127.3-18.7 93.3-52.7 127.3-79.2 52.7-127.3 52.7-93.3-18.7-127.3-52.7-52.7-79.2-52.7-127.3 18.7-93.3 52.7-127.3 79.2-52.7 127.3-52.7m0-28c-114.9 0-208 93.1-208 208s93.1 208 208 208 208-93.1 208-208-93.1-208-208-208z"/>
	<path d="m256.7 160c37.5 0 63.3 20.8 63.3 50.7 0 19.8-9.6 33.5-28.1 44.4-17.4 10.1-23.3 17.5-23.3 30.3v7.9h-34.7l-.3-8.6c-1.7-20.6 5.5-33.4 23.6-44 16.9-10.1 24-16.5 24-28.9s-12-21.5-26.9-21.5c-15.1 0-26 9.8-26.8 24.6h-35.5c.7-32.2 24.5-54.9 64.7-54.9zm-26.3 171.4c0-11.5 9.6-20.6 21.4-20.6 11.9 0 21.5 9 21.5 20.6s-9.6 20.6-21.5 20.6-21.4-9-21.4-20.6z"/>
</symbol>

<symbol id="icon-calendar-ios" viewBox="0 0 512 512">
	<path d="m424 96h-40v24c0 4.4-3.6 8-8 8h-16c-4.4 0-8-3.6-8-8v-24h-192v24c0 4.4-3.6 8-8 8h-16c-4.4 0-8-3.6-8-8v-24h-40c-22 0-40 18-40 40v272c0 22 18 40 40 40h336c22 0 40-18 40-40v-272c0-22-18-40-40-40zm8 300c0 11-9 20-20 20h-312c-11 0-20-9-20-20v-180c0-4.4 3.6-8 8-8h336c4.4 0 8 3.6 8 8z"/>
	<path d="m160 72c0-4.4-3.6-8-8-8h-16c-4.4 0-8 3.6-8 8v24h32z"/>
	<path d="m384 72c0-4.4-3.6-8-8-8h-16c-4.4 0-8 3.6-8 8v24h32z"/>
</symbol>

<symbol id="icon-pin-ios" viewBox="0 0 512 512">
	<path d="m256 48c-79.5 0-144 59.9-144 133.7 0 104 144 282.3 144 282.3s144-178.3 144-282.3c0-73.8-64.5-133.7-144-133.7zm0 190.9c-25.9 0-46.9-21-46.9-46.9s21-46.9 46.9-46.9 46.9 21 46.9 46.9-21 46.9-46.9 46.9z"/>
</symbol>

<symbol id="icon-quote-ios" viewBox="0 0 512 512">
	<path d="m209 96h-65c-26.4 0-48 21.6-48 48v128c0 26.4 21.6 48 48 48h38.7c4.6 0 8.3 3.9 8 8.6-2.3 35.5-18.8 60.2-31.3 74.1-4.7 5.2-1 13.4 5.9 13.4h39.9c2.5 0 4.8-1.1 6.3-3.1 7.4-9.6 28.5-41.6 28.5-93.9 0-45.7 0-141.8 0-192 0-17.8-13.3-31.1-31-31.1z"/>
	<path d="m385 96h-65c-26.4 0-48 21.6-48 48v128c0 26.4 21.6 48 48 48h38.7c4.6 0 8.3 3.9 8 8.6-2.3 35.5-18.8 60.2-31.3 74.1-4.7 5.2-1 13.4 5.9 13.4h39.9c2.5 0 4.8-1.1 6.3-3.1 7.4-9.6 28.5-41.6 28.5-93.9 0-45.7 0-141.8 0-192 0-17.8-13.3-31.1-31-31.1z"/>
</symbol>

<symbol id="icon-checkmark-ios" viewBox="0 0 512 512">
	<path d="m362.6 192.9-17.6-18.1c-.7-.8-1.8-1.2-2.8-1.2-1.1 0-2.1.4-2.8 1.2l-122 122.9-44.4-44.4c-.8-.8-1.8-1.2-2.8-1.2s-2 .4-2.8 1.2l-17.8 17.8c-1.6 1.6-1.6 4.1 0 5.7l56 56c3.6 3.6 8 5.7 11.7 5.7 5.3 0 9.9-3.9 11.6-5.5h.1l133.7-134.4c1.4-1.7 1.4-4.2-.1-5.7z"/>
</symbol>

<!-- logos -->

<symbol id="icon-logo-dropbox" viewBox="0 0 512 512">
	<path d="M177 77L64 150.9l78.1 62.7L256 143.1zM64 276.3l113 73.9 79-66.1-113.9-70.5zM256 284.1l79 66.1 113-73.9-78.1-62.7zM448 150.9L335 77l-79 66.1 113.9 70.5z"/>
	<path d="M256.2 298.3l-79.8 66-34.4-22.2V367l114 68 114-68v-24.9l-34.2 22.2z"/>
</symbol>

<symbol id="icon-logo-vimeo" viewBox="0 0 512 512">
	<path d="M476.9 114c-5-23.4-17.5-38.8-40.6-46.3s-64.9-4.5-94.1 16.8c-29.9 21.8-47.6 59.7-53.8 83.8 14.7-6.3 24-7.7 39-6.9s24.5 12 24.9 25.3c.3 9.8-.2 18.7-3.6 27.7-10.8 28.7-27.7 56.5-47.6 80.8-2.9 3.6-6.4 6.9-10 9.9-10.2 8.3-18.8 6.1-25.4-5.2-5.4-9.3-9-18.9-12.2-29.1-12.4-39.7-16.8-80.9-23.8-121.6-3.3-19.5-7-39.8-18-56.9-11.6-17.8-28.6-24.6-50-22-14.7 1.8-36.9 17.5-47.8 26.4 0 0-56 46.9-81.8 71.4l21.2 27s17.9-12.5 27.5-18.3c5.7-3.4 12.4-4.1 17.2.2 4.5 3.9 9.6 9 12.3 14.1 5.7 10.7 11.2 21.9 14.7 33.4 13.2 44.3 25.5 88.7 37.8 133.3 6.3 22.8 13.9 44.2 28 63.6 19.3 26.6 39.6 32.7 70.9 21.5 25.4-9.1 46.6-26.2 66-43.9 33.1-30.2 59.1-65.4 85.5-101.2 20.4-27.7 37.3-55.7 51.4-87 13.9-31 19.4-63.5 12.3-96.8z"/>
</symbol>

</svg>
