<svg viewBox="0 0 35 16" xmlns="http://www.w3.org/2000/svg"><path d="M6.666 15h1.18v-3.06h2.217v-1.171H7.866V6.653h-1.2v4.164h-4.97v-.096l4.846-9.566H5.198L.315 10.932v1.007h6.351zm13.385-9c.077.624.115 1.315.115 2.082 0 4.001-1.084 6.093-3.156 6.093-1.392 0-2.332-.94-2.802-2.754zm-6.083 4.135a16.73 16.73 0 0 1-.115-2.053c0-4 1.084-6.092 3.157-6.092 1.4 0 2.34.95 2.81 2.792zM17.01.838c-2.888 0-4.472 2.562-4.472 7.244s1.584 7.244 4.472 7.244 4.47-2.562 4.47-7.244S19.899.838 17.01.838zM30.96 15v-3.06H24.61v-1.008l4.883-9.777h1.344L25.99 10.72v.096h4.97V6.653h1.2v4.116h2.197v1.17H32.14V15z"/></svg>
