<svg xmlns="http://www.w3.org/2000/svg" style="display: none;"><symbol id="wert-logo-s-mono-outline" viewBox="0 0 32 32"><g class="nc-icon-wrapper"><path d="M6.41 0h19.18c2.23 0 3.037.232 3.852.668a4.543 4.543 0 0 1 1.89 1.89c.436.815.668 1.623.668 3.852v19.18c0 2.23-.232 3.037-.668 3.852a4.543 4.543 0 0 1-1.89 1.89c-.815.436-1.623.668-3.852.668H6.41c-2.23 0-3.037-.232-3.852-.668a4.543 4.543 0 0 1-1.89-1.89C.232 28.627 0 27.82 0 25.59V6.41c0-2.23.232-3.037.668-3.852a4.543 4.543 0 0 1 1.89-1.89C3.373.232 4.18 0 6.41 0zm0 2c-1.73 0-2.312.112-2.909.431-.466.25-.82.604-1.07 1.07C2.112 4.098 2 4.68 2 6.41v19.18c0 1.73.112 2.312.431 2.909.25.466.604.82 1.07 1.07.597.319 1.179.431 2.909.431h19.18c1.73 0 2.312-.112 2.909-.431.466-.25.82-.604 1.07-1.07.319-.597.431-1.179.431-2.909V6.41c0-1.73-.112-2.312-.431-2.909a2.544 2.544 0 0 0-1.07-1.07C27.902 2.112 27.32 2 25.59 2zM6 26v-2h20v2zm20.144-4h-2.088l-1.802-6.005A6.487 6.487 0 0 1 22 16h-2v6h-2V8h4c2.552 0 4 1.448 4 4 0 1.688-.634 2.893-1.801 3.516zM20 14h2c1.448 0 2-.552 2-2s-.552-2-2-2h-2zM8 14h4.5v2H8v4h5.5v2H6V8h7.5v2H8z"/></g></symbol><symbol id="wert-logo-s" viewBox="0 0 16 16"><g class="nc-icon-wrapper"><path d="M3 12h10v1H3z" fill-opacity=".2"/><path d="M3 4h4v1H4v2h2.5v1H4v2h3v1H3z"/><path d="M9 4h2c1 0 2 .5 2 2 0 1-.333 1.667-1 2l1 3h-1l-1-3h-1v3H9zm1 1v2h1c.667 0 1-.333 1-1s-.333-1-1-1z"/></g></symbol><symbol id="wert-logo-s-mono" viewBox="0 0 32 32"><g class="nc-icon-wrapper"><path d="M6.41 0h19.18c2.23 0 3.037.232 3.852.668a4.543 4.543 0 0 1 1.89 1.89c.436.815.668 1.623.668 3.852v19.18c0 2.23-.232 3.037-.668 3.852a4.543 4.543 0 0 1-1.89 1.89c-.815.436-1.623.668-3.852.668H6.41c-2.23 0-3.037-.232-3.852-.668a4.543 4.543 0 0 1-1.89-1.89C.232 28.627 0 27.82 0 25.59V6.41c0-2.23.232-3.037.668-3.852a4.543 4.543 0 0 1 1.89-1.89C3.373.232 4.18 0 6.41 0zM6 26h20v-2H6zm20.144-4l-1.945-6.484C25.366 14.893 26 13.688 26 12c0-2.552-1.448-4-4-4h-4v14h2v-6h2c.086 0 .17-.002.254-.005L24.056 22zM20 14v-4h2c1.448 0 2 .552 2 2s-.552 2-2 2zM8 14v-4h5.5V8H6v14h7.5v-2H8v-4h4.5v-2z" fill-rule="evenodd"/></g></symbol><symbol id="wert-logo" viewBox="0 0 46 18"><g class="nc-icon-wrapper"><path d="M15 18h20v-2H15z" fill-opacity=".2"/><path d="M43 2v12h-2V2h-3V0h8v2z"/><path d="M35.144 14h-2.088l-1.802-6.005A6.487 6.487 0 0 1 31 8h-2v6h-2V0h4c2.552 0 4 1.448 4 4 0 1.688-.634 2.893-1.801 3.516zM29 2v4h2c1.448 0 2-.552 2-2s-.552-2-2-2zM17 8v4h5.5v2H15V0h7.5v2H17v4h4.5v2z"/><path d="M8.423 9.193L9.42.03h2.149L9.785 14H7.578L6.053 4.712 4.546 14H2.35L.565.03h2.149l.998 9.115L5.142.03h1.803z"/></g></symbol><symbol id="wert-logo-s-outline" viewBox="0 0 32 32"><g class="nc-icon-wrapper"><path d="M26.144 22h-2.088l-1.802-6.005A6.487 6.487 0 0 1 22 16h-2v6h-2V8h4c2.552 0 4 1.448 4 4 0 1.688-.634 2.893-1.801 3.516zM20 14h2c1.448 0 2-.552 2-2s-.552-2-2-2h-2zM8 14h4.5v2H8v4h5.5v2H6V8h7.5v2H8z"/><path d="M6.41 0h19.18c2.23 0 3.037.232 3.852.668a4.543 4.543 0 0 1 1.89 1.89c.436.815.668 1.623.668 3.852v19.18c0 2.23-.232 3.037-.668 3.852a4.543 4.543 0 0 1-1.89 1.89c-.815.436-1.623.668-3.852.668H6.41c-2.23 0-3.037-.232-3.852-.668a4.543 4.543 0 0 1-1.89-1.89C.232 28.627 0 27.82 0 25.59V6.41c0-2.23.232-3.037.668-3.852a4.543 4.543 0 0 1 1.89-1.89C3.373.232 4.18 0 6.41 0zm0 2c-1.73 0-2.312.112-2.909.431-.466.25-.82.604-1.07 1.07C2.112 4.098 2 4.68 2 6.41v19.18c0 1.73.112 2.312.431 2.909.25.466.604.82 1.07 1.07.597.319 1.179.431 2.909.431h19.18c1.73 0 2.312-.112 2.909-.431.466-.25.82-.604 1.07-1.07.319-.597.431-1.179.431-2.909V6.41c0-1.73-.112-2.312-.431-2.909a2.544 2.544 0 0 0-1.07-1.07C27.902 2.112 27.32 2 25.59 2zM6 26v-2h20v2z" fill-opacity=".2"/></g></symbol></svg>