<svg class="icon logo-wert" viewBox="0 0 368 144" xmlns="http://www.w3.org/2000/svg">
	<g fill="none" stroke-linecap="square" stroke="var(--color-logo-wert,currentColor)" stroke-width="var(--stroke-width,16)">
		<g style="
			--skew-deg: 10;
			--rad: calc(var(--skew-deg) * 3.1415926535898 / 180);
			--tan-term-1: var(--rad);
			--tan-term-2: calc((1 / 3) * var(--rad) * var(--rad) * var(--rad));
			--tan-term-3: calc((2 / 15) * var(--rad) * var(--rad) * var(--rad) * var(--rad) * var(--rad));
			--tan-term-4: calc((17 / 315) * var(--rad) * var(--rad) * var(--rad) * var(--rad) * var(--rad) * var(--rad) * var(--rad));
			--tan: calc(var(--tan-term-1) + var(--tan-term-2) + var(--tan-term-3) + var(--tan-term-4));
		">
			<path class="w-1" d="M48 8v96" stroke-width="calc(1.02px*var(--stroke-width,16))" style="transform-origin:50% calc(96px + 1.02px*var(--stroke-width,16)/2);transform:translateX(calc(-1px*(104 + 1.02*var(--stroke-width,16))*var(--tan))) skewX(calc(1deg*var(--skew-deg)))"/>
			<path class="w-2" d="M48 104v-96" stroke-width="calc(1.02px*var(--stroke-width,16))" style="transform-origin:50% calc(8px - 1.02px*var(--stroke-width,16)/2);transform:skewX(calc(-1deg*var(--skew-deg)))"/>
			<path class="w-3" d="M48 8v96" stroke-width="calc(1.02px*var(--stroke-width,16))" style="transform-origin:50% calc(8px - 1.02px*var(--stroke-width,16)/2);transform:skewX(calc(1deg*var(--skew-deg)))"/>
			<path class="w-4" d="M48 104v-96" stroke-width="calc(1.02px*var(--stroke-width,16))" style="transform-origin:50% calc(96px + 1.02px*var(--stroke-width,16)/2);transform:translateX(calc(1px*(104 + 1.02*var(--stroke-width,16))*var(--tan))) skewX(calc(-1deg*var(--skew-deg)))"/>
		</g>
		<path d="M28 116L48 8l20 108" stroke-width="calc(1px*var(--stroke-width,16)*.85)" style="transform-origin:48px;transform:scaleX(calc(1 + (8 - var(--stroke-width,16))/72));opacity:0"/>
		<path d="M224 8h24c16 0 24 8 24 24s-8 24-24 24h-24M224 8v96M128 104h44M128 56h36M128 8h44M128 8v96"/>
		<path d="M228 57v46.3" stroke-width="calc(1.07px*var(--stroke-width,16))" transform="skewX(23)"/>
		<path d="M312 8h48M336 8v96"/>
		<path d="M128 136h144" stroke-opacity=".3"/>
		<path d="M128 136h144" stroke="var(--color-logo-wert-uline,var(--color-link))" style="transform-origin:calc(1px*(128 - var(--stroke-width,16)/2));transform:scaleX(var(--scale-uline,0));transition:var(--tran-symbol)"/>
	</g>
</svg>
